# xmcd
#
# Track frame offsets:
#	150
#	15959
#	29985
#	44787
#	59882
#	78240
#	93020
#	106359
#	122005
#	137730
#	153407
#	166564
#	182985
#
# Disc length: 2640 seconds
#
# Revision: 1
# Processed by: cddbd v1.5.2PL0 Copyright (c) Steve Scherf et al.
# Submitted via: audiograbber 1.83.01
#
DISCID=aa0a4e0d
DTITLE=Geschwister Hofmann - Wir fliegen
DYEAR=2011
DGENRE=Schlager
TTITLE0=Und wir fliegen
TTITLE1=Dieses Lied
TTITLE2=Limbo auf Jamaika
TTITLE3=Du darfst nicht geh´n
TTITLE4=Kannst du schlafen ohne mich
TTITLE5=Wir singen Bella Musica
TTITLE6=Zünd´ ein Licht an
TTITLE7=Annemarie
TTITLE8=Alle Tränen sind geweint
TTITLE9=Mit dir allein im Paradies
TTITLE10=Sag mir, wo sind all die Träume hin
TTITLE11=Unendlich frei
TTITLE12=Annemarie (Hüttenmix)
EXTD=
EXTT0=
EXTT1=
EXTT2=
EXTT3=
EXTT4=
EXTT5=
EXTT6=
EXTT7=
EXTT8=
EXTT9=
EXTT10=
EXTT11=
EXTT12=
PLAYORDER=
